<?xml version="1.0"?>
<svg width="1024" height="1024" xmlns="http://www.w3.org/2000/svg" xmlns:svg="http://www.w3.org/2000/svg" version="1.1">
 <g class="layer">
  <title>Layer 1</title>
  <rect fill="#35495f" height="56.92" id="svg_2" rx="5.01" style="--darkreader-inline-fill: #383d41;" transform="rotate(20.6 297.89 360.86)" width="10.2" x="292.79" y="332.4"/>
  <rect fill="#35495f" height="38.56" id="svg_3" rx="4.78" style="--darkreader-inline-fill: #383d41;" transform="rotate(-0.2 249.12 354.16)" width="9.84" x="244.2" y="334.88"/>
  <rect fill="#35495f" height="10.4" id="svg_4" rx="5.11" style="--darkreader-inline-fill: #383d41;" transform="rotate(-36.1 339.64 385.43)" width="56.26" x="311.51" y="380.23"/>
  <path d="m163.3,551.98l0.06,-113l0.15,-0.7l0.7,-0.73l84.24,-46.12l0.78,-0.2l0.78,0.19l85.46,46.15l0.16,0.09l0.51,0.58l0.19,0.76l0.06,112.08l-0.23,0.83l-0.62,0.6l-86.13,46.63l-0.65,0.19l-0.91,-0.19l-83.7,-45.73l-0.62,-0.6l-0.23,-0.83zm85.89,-73.1l0.38,0l67.57,-36.55l0.2,-0.31l-0.21,-0.39l-67.71,-36.26l-0.38,0l-66.61,36.54l-0.08,0.06l-0.12,0.34l0.2,0.3l66.76,36.27zm6.57,10.84l-0.18,0.3l-0.02,91.19l0.17,0.29l0.33,0.01l0,0l0,0l67.71,-36.63l0.18,-0.3l0.02,-91.2l-0.04,-0.17l-0.46,-0.13l-67.71,36.64zm-13.3,92.08l0.24,0.05l0.27,-0.13l0.11,-0.29l-0.15,-91.66l-0.22,-0.37l-66.38,-35.9l-0.52,0.1l-0.1,0.27l0.15,91.66l0.22,0.37l66.38,35.9z" fill="#35495f" id="svg_5" style="--darkreader-inline-fill: #383d41;"/>
  <path d="m746.54,436.77l4.75,-2.84l4.85,-2.42l4.97,-2l5.09,-1.58l0,0l0,0l0,0l6.66,-1.42l6.86,-0.73l7.03,-0.05l7.22,0.63l5.44,1.01l5.47,1.57l5.47,2.13l5.5,2.69l3.83,2.24l3.61,2.45l4.28,3.41l3.94,3.71l3.69,4.09l3.34,4.36l3.08,4.76l2.72,4.99l2.39,5.31l2.01,5.48l1.67,5.79l1.28,5.92l0.9,6.1l0.5,6.16l0.1,6.23l-0.31,6.21l-0.7,6.16l-1.09,6.07l-1.05,4.3l-1.28,4.19l-1.49,4.06l-1.72,3.94l-1.95,3.86l-2.16,3.71l-2.35,3.55l-2.55,3.38l-2.75,3.23l-2.93,3.05l-3.1,2.86l-3.27,2.66l-3.38,2.43l-3.53,2.21l-3.68,2l-3.8,1.77l-6.37,2.35l-6.66,1.71l-6.79,1.03l-7.01,0.36l-5.83,-0.2l-5.67,-0.63l-5.59,-1.06l-5.4,-1.48l-5.2,-1.9l-4.97,-2.3l-4.72,-2.69l-4.47,-3.08l-3.9,-3.18l-3.65,-3.5l-3.39,-3.81l-3.12,-4.1l-2.82,-4.36l-2.52,-4.64l-2.18,-4.81l-1.88,-5.07l-1.84,-6.33l-1.38,-6.48l-0.93,-6.6l-0.46,-6.68l0,-6.7l0.48,-6.68l0.94,-6.52l1.4,-6.42l1.82,-6.12l2.28,-5.93l2.66,-5.61l3.11,-5.36l3.42,-4.93l3.84,-4.63l4.16,-4.2l4.55,-3.87l4.53,-3.21zm35.29,130.18l3.88,-0.04l3.77,-0.27l3.76,-0.52l3.63,-0.75l3.53,-0.98l3.39,-1.2l3.36,-1.45l3.21,-1.66l2.95,-1.8l2.82,-1.98l2.67,-2.16l2.53,-2.33l2.42,-2.53l2.26,-2.69l2.1,-2.84l1.94,-2.99l1.78,-3.13l1.61,-3.27l1.43,-3.38l1.25,-3.5l1.07,-3.61l0.89,-3.7l0.69,-3.79l0.51,-3.88l0.47,-6.82l-0.04,-6.61l-0.54,-6.55l-1.04,-6.26l-1.53,-6.05l-2,-5.7l-2.52,-5.51l-2.95,-5.13l-2.06,-3.02l-2.23,-2.84l-2.37,-2.67l-2.52,-2.48l-2.65,-2.3l-2.79,-2.12l-2.91,-1.91l-3.03,-1.72l-5.65,-2.55l-5.96,-1.88l-6.15,-1.18l-6.38,-0.48l-6.4,0.22l-6.19,0.93l-6.04,1.64l-5.75,2.32l-3.09,1.59l-2.99,1.8l-2.87,2l-2.75,2.19l-2.61,2.38l-2.48,2.57l-2.33,2.75l-2.19,2.93l-3.16,5l-2.74,5.41l-2.22,5.62l-1.78,5.98l-1.29,6.21l-0.8,6.52l-0.31,6.6l0.19,6.84l0.35,3.89l0.54,3.82l0.74,3.74l0.92,3.64l1.11,3.55l1.3,3.44l1.47,3.33l1.65,3.2l1.81,3.06l1.99,2.93l2.15,2.78l2.31,2.62l2.43,2.43l2.59,2.27l2.73,2.09l2.88,1.92l3.14,1.79l3.3,1.59l3.34,1.33l3.48,1.12l3.61,0.9l3.73,0.67l3.76,0.43l3.87,0.19z" fill="#35495f" id="svg_7" style="--darkreader-inline-fill: #383d41;"/>
  <path d="m405.78,511.11l-0.58,0.49l-0.16,0.75l0.95,5.76l1.4,5.56l1.85,5.32l2.28,5.06l2.71,4.79l3.13,4.48l3.52,4.15l3.92,3.79l4.33,3.44l4.69,3.03l4.97,2.55l5.31,2.12l5.14,1.58l5.16,1.2l5.17,0.82l5.2,0.43l0,0l0,0l0,0l0,0l4.23,0.07l4.24,-0.18l4.25,-0.43l4.26,-0.68l6.03,-1.41l5.74,-1.9l5.43,-2.37l5.13,-2.86l0,0l4.71,-3.26l4.43,-3.72l4.15,-4.18l3.85,-4.64l0.75,-0.59l0.93,-0.15l3.2,0.74l3.01,1.32l1.03,0.71l0.82,0.8l0.51,0.8l0.23,0.88l-0.1,0.96l-0.48,1.04l-3.48,4.78l-4.16,4.57l-5.98,5.44l-6.28,4.7l-6.58,3.96l-3.4,1.7l-3.48,1.51l0,0l0,0l-6.21,2.18l-6.44,1.62l-6.67,1.05l-6.89,0.5l-7.76,-0.09l-7.68,-0.75l-7.45,-1.41l-7.27,-2.07l-6.84,-2.65l-6.56,-3.3l-6.16,-3.9l-5.63,-4.4l-1.88,-1.69l-3.98,-4.05l-3.59,-4.33l-3.27,-4.67l-2.87,-4.91l-2.52,-5.26l-2.1,-5.43l-1.71,-5.69l-1.27,-5.8l-0.84,-6.01l-0.4,-6.07l0.04,-6.08l0.49,-6.07l0.93,-6.02l1.37,-5.93l1.77,-5.72l2.19,-5.56l2.55,-5.28l2.89,-4.99l3.22,-4.7l3.56,-4.4l0,0l4.73,-4.9l5.21,-4.48l5.7,-4.05l6.19,-3.62l4.04,-1.99l4.14,-1.75l4.21,-1.51l4.27,-1.26l4.39,-1.03l4.43,-0.77l4.46,-0.53l4.47,-0.27l4.48,-0.03l4.47,0.23l4.45,0.49l4.42,0.73l4.32,0.97l4.27,1.22l4.2,1.47l4.12,1.71l5.1,2.53l4.77,2.85l4.54,3.22l4.21,3.52l2.87,2.75l2.69,2.89l2.57,3.1l2.39,3.24l2.2,3.36l2.02,3.48l1.88,3.69l1.69,3.79l1.52,3.95l1.32,4.05l1.12,4.13l0.93,4.22l0.75,4.34l0.54,4.4l0.5,8.96l-0.07,2.21l-0.27,1.8l-0.27,0.65l-0.47,0.53l-0.62,0.34l-0.7,0.11l-96.94,-0.12l-38.75,0.1l-1.49,0.23zm21.42,-57.1l-3.41,3.13l-3.15,3.31l-2.87,3.49l-2.6,3.67l0,0l0,0l-3.16,5.4l-2.63,5.74l-2.11,6.09l-1.58,6.43l-0.5,3.22l-0.19,3.02l0.2,0.51l0.51,0.21l0,0l0,0l124.53,0.01l0,0l0.73,-0.15l0.62,-0.41l0.41,-0.62l0.14,-0.73l-0.27,-3.28l-0.81,-4.29l-0.31,-1.51l-1.58,-6.27l-2.13,-5.87l-2.68,-5.49l-3.22,-5.1l-3.08,-3.91l-3.44,-3.65l-3.83,-3.38l-4.19,-3.12l-4.48,-2.78l-4.69,-2.39l-4.97,-2.04l-5.13,-1.64l-5.28,-1.23l-5.38,-0.81l-5.42,-0.4l-5.44,0.03l-5.39,0.45l-5.33,0.88l-5.15,1.28l-5.04,1.7l-4.76,2.06l-4.58,2.46l-4.29,2.79l-4.07,3.19z" fill="#35495f" id="svg_8" style="--darkreader-inline-fill: #383d41;"/>
  <path d="m624.04,557.31l1.22,-2.01l58.6,-123.33l0.44,-0.68l0.6,-0.54l0.71,-0.36l0.79,-0.17l5.02,-0.18l5.48,0.24l0.8,0.26l0.57,0.59l0.08,0.59l-0.29,0.84l-50.42,103.57l-9.61,20.08l-9.31,20.03l-0.77,1.21l-1,0.75l0,0l-0.42,0.15l-2.39,0.45l-2.2,-0.03l-1.72,-0.49l-1.24,-0.91l-0.63,-0.94l-59.92,-125.53l-7.54,-15.77l-1.11,-2.85l-0.02,-0.1l0.02,-0.64l0.27,-0.59l0.48,-0.43l0.62,-0.2l4.3,-0.28l5.03,0.03l1.03,0.15l0.87,0.34l1.16,0.97l0.95,1.55l26.81,57.94l29.27,61.64l2.51,4.61l0.41,0.28l0.47,-0.14l0.08,-0.1z" fill="#35495f" id="svg_9"/>
 </g>
</svg>